<svg id="Layer_1" data-name="Layer 1" xmlns="http://www.w3.org/2000/svg" xmlns:xlink="http://www.w3.org/1999/xlink" viewBox="0 0 280.43 269.17"><defs><style>.cls-1{fill:none;}.cls-2{clip-path:url(#clip-path);}.cls-3{fill:#d4ba66;}</style><clipPath id="clip-path"><rect class="cls-1" width="280.43" height="268.92"/></clipPath></defs><g class="cls-2"><path class="cls-3" d="M78.51,0A5.75,5.75,0,0,0,76,.59L68.52,4.36l-11.22,7a4.9,4.9,0,0,0-.9.69L45.3,22.66,37.5,28H28a5.66,5.66,0,0,0-3,.85L14.33,35.6l-10.69,4A5.61,5.61,0,0,0,3.1,49.88l6,3,.86,4.31a5.59,5.59,0,0,0,3.74,4.23l30.7,10.22,8.53,5.89a5.58,5.58,0,0,0,3.19,1H72.9v2.1A5.58,5.58,0,0,0,76.83,86l7.28,2.28v12.71a5.69,5.69,0,0,0,.17,1.36l1.4,5.6a5.55,5.55,0,0,0,.95,2l4.21,5.61a5.66,5.66,0,0,0,4.49,2.24l.36,0a5.61,5.61,0,0,0,4.52-2.86l7.41-13.29L113.47,89l2.79-5.27,2.47,3.59a5.66,5.66,0,0,0,4,2.4,5.53,5.53,0,0,0,4.44-1.51l13.43-12.81,17.17-2.54A5.64,5.64,0,0,0,161,71.26l3.15-3.16L175.64,72l3.24,5.24a5.51,5.51,0,0,0,1.88,1.87l7,4.2a5.6,5.6,0,0,0,5.65.07,5.6,5.6,0,0,0,2.85-4.87v-6a5.76,5.76,0,0,0,2.1.4h14.72a5.61,5.61,0,0,0,5.61-5.61v-5.6A5.61,5.61,0,0,0,216.2,57l-6.39-4.26-2.4-14.43a5.61,5.61,0,0,0-5.53-4.69h-3.51a5.61,5.61,0,0,0-3.72,1.43l-4.72,4.18H179.44V33.64a5.6,5.6,0,0,0-5.27-5.59c-3.51-.21-8.73,0-8.95,0a5.7,5.7,0,0,0-2.52.7l-5.29,2.93-19.88,2A5.55,5.55,0,0,0,134.48,35l-10,8.39-4.15-3a5.59,5.59,0,0,0-5.48-.64l-8.78,3.69-2.42-4.15a6,6,0,0,0-.72-1l-7.71-8.41a5.89,5.89,0,0,0-1.5-1.17l-10.51-5.6a5.64,5.64,0,0,0-2.64-.66H79.9l2.24-3.82,11-8.58A5.61,5.61,0,0,0,89.72,0ZM190.6,84.11H180.15a5.64,5.64,0,0,0-3.73,1.43l-6.31,5.61a5.6,5.6,0,0,0-1.29,6.69l2,4a5.61,5.61,0,0,0-2.58,4.72v18.39l-7.67,2.57L156.72,116a5.6,5.6,0,0,0-10.92,1.77v5.61a5.6,5.6,0,0,0-5.07,3.22l-5.61,11.91a5.68,5.68,0,0,0-.54,2.39v14.89L129.41,167a5.66,5.66,0,0,0,.13,5l4,7.58-3.32,4.14a5.62,5.62,0,0,0-.91,5.37l9.61,26.75,1.28,11.5-.64,12.86-2.95,9.44-3.45,4a5.59,5.59,0,0,0-.87,1.37l-2.8,6.31a5.6,5.6,0,0,0,5.12,7.89H246.74a5.6,5.6,0,0,0,5-3.1l5.61-11.22a5.48,5.48,0,0,0,.49-1.48l1.7-9,5.91-4.29a5.56,5.56,0,0,0,2.24-3.68l.82-5.35,5.21-1.16a5.61,5.61,0,0,0,4.34-4.8l2.28-19a5.66,5.66,0,0,0-.24-2.42L274.64,187c0-.08-.06-.17-.1-.26l-6-15.44L263,160.11a5.62,5.62,0,0,0-5-3.1h-9.81a5.63,5.63,0,0,0-4.15,1.83l-7,7.71a6,6,0,0,0-.87,1.27l-4.91,9.81-1.59,1-5.3-2.65V165.16L233.6,157a5.76,5.76,0,0,0,1.44-1.95l5.61-12.62a5.59,5.59,0,0,0,.48-2.28V123.37a5.62,5.62,0,0,0-1.64-4l-1.65-1.64,1.65-1.63a5.62,5.62,0,0,0,.7-7.08l-5.61-8.41a5.57,5.57,0,0,0-3.66-2.41L223.75,97l-12.6-3.6-3.06-5.11a5.63,5.63,0,0,0-4-2.67l-9.82-1.4a5.29,5.29,0,0,0-.8-.06Z"/></g></svg>