<svg id="Layer_1" data-name="Layer 1" xmlns="http://www.w3.org/2000/svg" xmlns:xlink="http://www.w3.org/1999/xlink" viewBox="0 0 268.71 254.22"><defs><style>.cls-1{fill:none;}.cls-2{clip-path:url(#clip-path);}.cls-3{fill:#d4ba66;}</style><clipPath id="clip-path"><rect class="cls-1" width="268.71" height="254.22"/></clipPath></defs><g class="cls-2"><path class="cls-3" d="M136.36,48.35a26.27,26.27,0,0,1,2.44,1.36,7.48,7.48,0,0,1,1.61,1.52c1.4,1.76,3,2.58,5.18,1.35a1,1,0,0,1,.84,0c1.61,1.31,2.4.28,3-1.18a5.32,5.32,0,0,1,3.16,4.1c.15,1.12.73,1.59,1.93,1.74,3.26.39,6.53.94,9.77,1.48a2.8,2.8,0,0,1,1.55.69c1.73,2,3.13,1.89,4.22-.41a1.12,1.12,0,0,1,.22-.21c1.41.21,2.83.43,4.46.66.07.3.24.92.33,1.53.13.92.4,1.61,1.54,1.5s1.1.79,1,1.41a1.91,1.91,0,0,0,1.85,2.22c.6.08,1.39-.75,2-1.31s1.31-1.44,2.09-2.3c1.14,1.72,2.21,3.46,4.53,2.13.45,2.08,1.16,2.36,3,1.35.3-.17.58-.36.88-.52.92-.45,1.59,0,1.63,1a6.67,6.67,0,0,0,.32,2.13c.15.38.71.88,1.05.86a1.45,1.45,0,0,0,.91-1A6.09,6.09,0,0,1,198,64.05c1.1-1,1.59-1,2.45.17l1.7,2.45c.28,0,.38,0,.45-.09,2-1.82,2.06-1.87,4.21-.21,1.52,1.18,3.41,2,3.78,4.21,1.73-1.42,3.34-2.77,5-4.1a1.8,1.8,0,0,1,.9-.43c3-.46,6-.86,9.06-1.27.32,0,.8-.11,1,.06,1.24,1.1,2.68.61,4.08.61,1.59,0,3.11,0,3.61-2.24,2.12,1.33,4.48,1.85,6,3.85a3.62,3.62,0,0,0,1.26.94,37.44,37.44,0,0,1,5.24,2.68c3,2.22,6.44,2.49,9.92,2.65,1.22.06,1.44.51,1.44,1.58,0,11.43,0,22.85,0,34.27A6,6,0,0,0,259,112a18.31,18.31,0,0,0,2,2.71c1.35,1.67,2.42,3.39,2.08,5.71a1.75,1.75,0,0,0,.47,1.43c1.5,1.12,1.87,2.84,2.53,4.41a26.84,26.84,0,0,0,1.49,3.33,5.46,5.46,0,0,1,.49,4.78,1.42,1.42,0,0,0-.15.56c.49,3.57-1.44,6.36-2.84,9.34a2.6,2.6,0,0,0-.1,1.42c.13,1.24.56,2.53-.69,3.54-.19.15-.15.73-.09,1.1.24,1.54.43,3.11.78,4.66a3.24,3.24,0,0,1-.71,3.13c-.95,1.07-1.7,2.3-2.66,3.35a1.73,1.73,0,0,0-.11,2.59,5.11,5.11,0,0,1,.45,1.7,5.32,5.32,0,0,1-1.65,0,4.06,4.06,0,0,0-3.4.24c-1.89.94-3.9,1.63-5.77,2.62-2.3,1.2-4.44.21-6.77.1.28-2,2.26-4-.62-5.73l-2.94,3.2a4.76,4.76,0,0,1-.51-.35c-1-.75-1.87-.4-2,.86a8,8,0,0,0-.11,2.06c0,.37.43,1,.69,1,1.46.11,1.48,1.1,1.59,2.17s.66,2.47-.91,3.18-2.94,1.37-4.42,2.06c-.08-.11-.15-.21-.24-.32-.1.56-.21,1.12-.34,1.67a9.69,9.69,0,0,1-4.36,5.89c-4.59,3.22-9.87,4.55-15,6.35a4,4,0,0,1-.94,0c.32-1.12.6-2.1,1-3.5l-4,1.57c-.54-.5-1-.92-1.51-1.4-.21.24-.34.3-.4.43-.71,1.76-1,1.87-2.41.6-.54-.49-1.07-.83-1.61-.14a2.23,2.23,0,0,0-.34,1.32,12,12,0,0,0,.3,1.83l4.16,3.29c-1.5.66-2.64,1.22-3.82,1.65a1.56,1.56,0,0,1-1.2-.39c-.73-.77-1.38-1.65-2-2.47-2,1.38-2.11,1.81-1.53,4,.28,1.09.93,2.25-.62,3.11-.23-.75-.47-1.46-.79-2.49-2.24,1.68-4.3,3.2-6.34,4.79a1.28,1.28,0,0,0-.08,1.16c.08.23.62.36.94.38a12.27,12.27,0,0,0,1.74-.21c-.41,1.41-.71,2.62-1.14,3.8a1.22,1.22,0,0,1-1.07.26c-2.08-1.81-4.38-.5-6.55-.84-.06.17-.15.36-.21.53,1.14.86,2.27,1.74,3.43,2.6,2.47,1.85,2.47,1.85,1.16,4.6-.75,1.59-1.48,3.2-2.32,5-.4-.77-.75-1.42-1.11-2.12-2.13,2.63-2.54,2.79-3,2.1l-2.81,2c1.74.3,3.78.67,6.05,1.08-.69,1.74-.26,3.67-2.06,4.89-.86.58-.45,3.57.49,4.08a2.83,2.83,0,0,1,1.66,2.81c-.07,1.78,0,3.59.08,5.37a3,3,0,0,0,.71,1.57c2.24,2.75,2.51,6.1,3.05,9.06-.9.79-1.59,1.5-2.36,2.1s-1.59,1-2.28,0c-2.08-3.07-5.13-3.95-8.65-3.95a36,36,0,0,1-4.85-.37,5.36,5.36,0,0,1-2.15-.81c-2.25-1.5-4.46-3.05-7.28-3.35a2,2,0,0,1-1.18-.54c-1.82-2.06-4.31-2.62-6.83-3-.92-.17-1.58-.47-1.54-1.54a1.25,1.25,0,0,0-.11-.58c-1.52-2.77-3.07-5.52-4.62-8.27a4.93,4.93,0,0,0-.57-.86,7.39,7.39,0,0,1-1.87-5.56,15.79,15.79,0,0,0-.8-3.5,4.79,4.79,0,0,1-.23-1.69c.45-3.23-.15-5-3-6.36a13.56,13.56,0,0,1-7.47-8.18,7.07,7.07,0,0,0-3.93-4.23c-1.83-.88-2.77-3.05-2.94-5.15a5.87,5.87,0,0,0-1.46-3.55,19,19,0,0,1-2.09-3.34c-.88-1.63-1.74-3.29-2.49-5-.34-.8-.32-1.72-.6-2.54a8.21,8.21,0,0,0-1-1.95,13,13,0,0,0-1.82-2.23c-1-.93-2-1.68-3-2.6-.74-.73-1.31-1.64-2-2.43-.3-.34-.67-.82-1.07-.9-2.67-.47-4.19-2.25-5.11-4.57a3.73,3.73,0,0,0-4.43-2.6c-1.69.19-3.45-.07-5.15,0a17.26,17.26,0,0,1-9.42-1.74c-1.06-.55-1.53-.21-2,.8a2.78,2.78,0,0,1-1.63,1.18A10.59,10.59,0,0,1,83,164a2.52,2.52,0,0,0-2.63,1.65c-.46,1-1.19,1.83-1.6,2.84a28.59,28.59,0,0,0-.87,3.3c-.2.65-.5,1.27-.71,1.91a6.53,6.53,0,0,0-.43,1.61c-.07,1.87-.24,2.09-1.81,2.2-1.09,1.41-2.06,2.66-3.24,4.2-1.52.11-3.37.35-5.09-1.18-1.5-1.33-3-2.94-5.34-2.72a.69.69,0,0,1-.52-.28c-1.87-2.35-4.68-2.77-7.28-3.57a4.49,4.49,0,0,1-3.24-2.68,3,3,0,0,0-2.62-2.06,3.49,3.49,0,0,1-2.49-1.85,50.38,50.38,0,0,0-3.48-5.3,8.83,8.83,0,0,1-2-6.85,5.41,5.41,0,0,0-1.33-4.36c-1.23-1.48-2.28-3.07-2-5.22a1.92,1.92,0,0,0-.69-1.35c-1.85-1.7-3.72-3.39-5.67-4.94a18.14,18.14,0,0,0-2.79-1.24,13.72,13.72,0,0,1-3-1.79c-3-2.72-5.85-5.53-8.72-8.37a17.29,17.29,0,0,1-1.07-1.65,2.58,2.58,0,0,0-1.16-1A8.27,8.27,0,0,1,7,119.83c-.92-2.41-2.94-3.56-5.07-4.68a2.69,2.69,0,0,1-1.46-3.5,1.2,1.2,0,0,1,.82-.6,5.35,5.35,0,0,1,1.33,0q34.26,0,68.53,0c1.42,0,2.06-.22,2.06-1.89,0-10.59.13-21.17.22-31.76q.17-20.16.3-40.32c.09-11.66.21-23.33.26-35C74,.63,74.35.15,75.9.15q29.11.11,58.2,0c1.57,0,1.87.52,1.87,1.94,0,15.07,0,30.12,0,45.19V48.7C136,48.53,136.19,48.44,136.36,48.35Z"/></g></svg>